<?xml version="1.0" encoding="UTF-8" standalone="no"?>
<!DOCTYPE svg PUBLIC "-//W3C//DTD SVG 1.1//EN"
 "http://www.w3.org/Graphics/SVG/1.1/DTD/svg11.dtd">
<!-- Generated by graphviz version 2.38.0 (20140413.2041)
 -->
<!-- Title: mygraph Pages: 1 -->
<svg width="309pt" height="1355pt"
 viewBox="0.00 0.00 309.00 1355.00" xmlns="http://www.w3.org/2000/svg" xmlns:xlink="http://www.w3.org/1999/xlink">
<g id="graph0" class="graph" transform="scale(1 1) rotate(0) translate(4 1351)">
<title>mygraph</title>
<polygon fill="white" stroke="none" points="-4,4 -4,-1351 305,-1351 305,4 -4,4"/>
<!-- node_1 -->
<g id="node1" class="node"><title>node_1</title>
<text text-anchor="middle" x="175.5" y="-42.5" font-family="Times New Roman,serif" font-size="10.00">bitboard_t</text>
</g>
<!-- node_2 -->
<g id="node2" class="node"><title>node_2</title>
<text text-anchor="middle" x="52" y="-123.5" font-family="Times New Roman,serif" font-size="10.00">book_move_t</text>
</g>
<!-- node_3 -->
<g id="node3" class="node"><title>node_3</title>
<text text-anchor="middle" x="52" y="-177.5" font-family="Times New Roman,serif" font-size="10.00">ft_t</text>
</g>
<!-- node_4 -->
<g id="node4" class="node"><title>node_4</title>
<text text-anchor="middle" x="52" y="-231.5" font-family="Times New Roman,serif" font-size="10.00">record_move_t</text>
</g>
<!-- node_5 -->
<g id="node5" class="node"><title>node_5</title>
<text text-anchor="middle" x="52" y="-285.5" font-family="Times New Roman,serif" font-size="10.00">cell_t</text>
</g>
<!-- node_6 -->
<g id="node6" class="node"><title>node_6</title>
<text text-anchor="middle" x="52" y="-339.5" font-family="Times New Roman,serif" font-size="10.00">dfpn_hash_entry_t</text>
</g>
<!-- node_7 -->
<g id="node7" class="node"><title>node_7</title>
<text text-anchor="middle" x="274" y="-393.5" font-family="Times New Roman,serif" font-size="10.00">child_t</text>
</g>
<!-- node_8 -->
<g id="node8" class="node"><title>node_8</title>
<text text-anchor="middle" x="175.5" y="-370.5" font-family="Times New Roman,serif" font-size="10.00">node_t</text>
</g>
<!-- node_8&#45;&gt;node_7 -->
<g id="edge1" class="edge"><title>node_8&#45;&gt;node_7</title>
<path fill="none" stroke="black" stroke-dasharray="5,2" d="M202.614,-379.224C213.235,-381.755 225.682,-384.722 237.131,-387.451"/>
<polygon fill="black" stroke="black" points="246.865,-389.771 236.094,-391.83 242.001,-388.612 237.137,-387.452 237.137,-387.452 237.137,-387.452 246.865,-389.771"/>
</g>
<!-- node_9 -->
<g id="node9" class="node"><title>node_9</title>
<text text-anchor="middle" x="52" y="-393.5" font-family="Times New Roman,serif" font-size="10.00">dfpn_tree_t</text>
</g>
<!-- node_9&#45;&gt;node_7 -->
<g id="edge2" class="edge"><title>node_9&#45;&gt;node_7</title>
<path fill="none" stroke="black" stroke-dasharray="5,2" d="M84.398,-397.792C100.935,-398.648 121.558,-399.576 140,-400 171.547,-400.725 179.461,-401.016 211,-400 219.354,-399.731 228.332,-399.258 236.79,-398.73"/>
<polygon fill="black" stroke="black" points="246.772,-398.067 237.092,-403.22 241.783,-398.398 236.794,-398.729 236.794,-398.729 236.794,-398.729 246.772,-398.067"/>
</g>
<!-- node_9&#45;&gt;node_8 -->
<g id="edge3" class="edge"><title>node_9&#45;&gt;node_8</title>
<path fill="none" stroke="black" stroke-dasharray="5,2" d="M84.2893,-390.077C100.709,-386.969 120.918,-383.143 138.043,-379.901"/>
<polygon fill="black" stroke="black" points="148.246,-377.97 139.258,-384.251 143.333,-378.9 138.421,-379.83 138.421,-379.83 138.421,-379.83 148.246,-377.97"/>
</g>
<!-- node_10 -->
<g id="node10" class="node"><title>node_10</title>
<text text-anchor="middle" x="175.5" y="-516.5" font-family="Times New Roman,serif" font-size="10.00">book_entry_t</text>
</g>
<!-- node_11 -->
<g id="node11" class="node"><title>node_11</title>
<text text-anchor="middle" x="52" y="-493.5" font-family="Times New Roman,serif" font-size="10.00">parse1_data_t</text>
</g>
<!-- node_11&#45;&gt;node_10 -->
<g id="edge4" class="edge"><title>node_11&#45;&gt;node_10</title>
<path fill="none" stroke="black" stroke-dasharray="5,2" d="M89.125,-502.838C101.946,-505.265 116.528,-508.026 129.967,-510.57"/>
<polygon fill="black" stroke="black" points="139.974,-512.464 129.311,-515.026 135.061,-511.534 130.148,-510.604 130.148,-510.604 130.148,-510.604 139.974,-512.464"/>
</g>
<!-- node_21 -->
<g id="node21" class="node"><title>node_21</title>
<text text-anchor="middle" x="175.5" y="-462.5" font-family="Times New Roman,serif" font-size="10.00">record_t</text>
</g>
<!-- node_11&#45;&gt;node_21 -->
<g id="edge5" class="edge"><title>node_11&#45;&gt;node_21</title>
<path fill="none" stroke="black" stroke-dasharray="5,2" d="M89.125,-486.783C104.733,-482.801 122.951,-478.152 138.54,-474.175"/>
<polygon fill="black" stroke="black" points="148.351,-471.672 139.774,-478.504 143.506,-472.908 138.662,-474.144 138.662,-474.144 138.662,-474.144 148.351,-471.672"/>
</g>
<!-- node_12 -->
<g id="node12" class="node"><title>node_12</title>
<text text-anchor="middle" x="52" y="-570.5" font-family="Times New Roman,serif" font-size="10.00">parse2_data_t</text>
</g>
<!-- node_15 -->
<g id="node15" class="node"><title>node_15</title>
<text text-anchor="middle" x="175.5" y="-570.5" font-family="Times New Roman,serif" font-size="10.00">param_t</text>
</g>
<!-- node_12&#45;&gt;node_15 -->
<g id="edge6" class="edge"><title>node_12&#45;&gt;node_15</title>
<path fill="none" stroke="black" stroke-dasharray="5,2" d="M89.125,-573C104.584,-573 122.604,-573 138.094,-573"/>
<polygon fill="black" stroke="black" points="148.351,-573 138.351,-577.5 143.351,-573 138.351,-573 138.351,-573 138.351,-573 148.351,-573"/>
</g>
<!-- node_13 -->
<g id="node13" class="node"><title>node_13</title>
<text text-anchor="middle" x="52" y="-69.5" font-family="Times New Roman,serif" font-size="10.00">check_table_t</text>
</g>
<!-- node_13&#45;&gt;node_1 -->
<g id="edge7" class="edge"><title>node_13&#45;&gt;node_1</title>
<path fill="none" stroke="black" stroke-dasharray="5,2" d="M88.7969,-64.0451C103.584,-60.7591 120.759,-56.9425 135.834,-53.5925"/>
<polygon fill="black" stroke="black" points="145.879,-51.3602 137.094,-57.9224 140.998,-52.4449 136.117,-53.5295 136.117,-53.5295 136.117,-53.5295 145.879,-51.3602"/>
</g>
<!-- node_14 -->
<g id="node14" class="node"><title>node_14</title>
<text text-anchor="middle" x="52" y="-624.5" font-family="Times New Roman,serif" font-size="10.00">rpos_t</text>
</g>
<!-- node_16 -->
<g id="node16" class="node"><title>node_16</title>
<text text-anchor="middle" x="175.5" y="-678.5" font-family="Times New Roman,serif" font-size="10.00">trans_entry_t</text>
</g>
<!-- node_17 -->
<g id="node17" class="node"><title>node_17</title>
<text text-anchor="middle" x="52" y="-678.5" font-family="Times New Roman,serif" font-size="10.00">trans_table_t</text>
</g>
<!-- node_17&#45;&gt;node_16 -->
<g id="edge8" class="edge"><title>node_17&#45;&gt;node_16</title>
<path fill="none" stroke="black" stroke-dasharray="5,2" d="M87.1679,-681C100.256,-681 115.394,-681 129.354,-681"/>
<polygon fill="black" stroke="black" points="139.745,-681 129.745,-685.5 134.745,-681 129.745,-681 129.745,-681 129.745,-681 139.745,-681"/>
</g>
<!-- node_18 -->
<g id="node18" class="node"><title>node_18</title>
<text text-anchor="middle" x="52" y="-732.5" font-family="Times New Roman,serif" font-size="10.00">rand_work_t</text>
</g>
<!-- node_19 -->
<g id="node19" class="node"><title>node_19</title>
<text text-anchor="middle" x="52" y="-786.5" font-family="Times New Roman,serif" font-size="10.00">move_killer_t</text>
</g>
<!-- node_20 -->
<g id="node20" class="node"><title>node_20</title>
<text text-anchor="middle" x="52" y="-840.5" font-family="Times New Roman,serif" font-size="10.00">killer_t</text>
</g>
<!-- node_22 -->
<g id="node22" class="node"><title>node_22</title>
<text text-anchor="middle" x="52" y="-894.5" font-family="Times New Roman,serif" font-size="10.00">pv_t</text>
</g>
<!-- node_23 -->
<g id="node23" class="node"><title>node_23</title>
<text text-anchor="middle" x="52" y="-948.5" font-family="Times New Roman,serif" font-size="10.00">slide_tbl_t</text>
</g>
<!-- node_24 -->
<g id="node24" class="node"><title>node_24</title>
<text text-anchor="middle" x="52" y="-15.5" font-family="Times New Roman,serif" font-size="10.00">posi_t</text>
</g>
<!-- node_24&#45;&gt;node_1 -->
<g id="edge9" class="edge"><title>node_24&#45;&gt;node_1</title>
<path fill="none" stroke="black" stroke-dasharray="5,2" d="M79.0648,-23.7922C95.6557,-27.479 117.437,-32.3193 136.002,-36.4448"/>
<polygon fill="black" stroke="black" points="145.931,-38.6513 135.193,-40.8748 141.05,-37.5666 136.169,-36.4819 136.169,-36.4819 136.169,-36.4819 145.931,-38.6513"/>
</g>
<!-- node_25 -->
<g id="node25" class="node"><title>node_25</title>
<text text-anchor="middle" x="52" y="-1002.5" font-family="Times New Roman,serif" font-size="10.00">min_posi_t</text>
</g>
<!-- node_26 -->
<g id="node26" class="node"><title>node_26</title>
<text text-anchor="middle" x="52" y="-1056.5" font-family="Times New Roman,serif" font-size="10.00">root_move_t</text>
</g>
<!-- node_27 -->
<g id="node27" class="node"><title>node_27</title>
<text text-anchor="middle" x="52" y="-1110.5" font-family="Times New Roman,serif" font-size="10.00">next_move_t</text>
</g>
<!-- node_28 -->
<g id="node28" class="node"><title>node_28</title>
<text text-anchor="middle" x="52" y="-1164.5" font-family="Times New Roman,serif" font-size="10.00">history_book_learn_t</text>
</g>
<!-- node_29 -->
<g id="node29" class="node"><title>node_29</title>
<text text-anchor="middle" x="52" y="-1224" font-family="Times New Roman,serif" font-size="10.00">tree</text>
<text text-anchor="middle" x="52" y="-1213" font-family="Times New Roman,serif" font-size="10.00">tree_t</text>
</g>
<!-- node_30 -->
<g id="node30" class="node"><title>node_30</title>
<text text-anchor="middle" x="52" y="-1272.5" font-family="Times New Roman,serif" font-size="10.00">tree</text>
</g>
<!-- node_31 -->
<g id="node31" class="node"><title>node_31</title>
<text text-anchor="middle" x="52" y="-1326.5" font-family="Times New Roman,serif" font-size="10.00">dfpn_client_cresult_t</text>
</g>
</g>
</svg>
